<?xml version="1.0" encoding="utf-8"?>
<!-- Generator: Adobe Illustrator 26.5.0, SVG Export Plug-In . SVG Version: 6.00 Build 0)  -->
<svg version="1.1" id="Layer_1" xmlns="http://www.w3.org/2000/svg" xmlns:xlink="http://www.w3.org/1999/xlink" x="0px" y="0px"
	 viewBox="0 0 194 172" style="enable-background:new 0 0 194 172;" xml:space="preserve">
<style type="text/css">
	.st0{fill:#983794;}
</style>
<g>
	<path class="st0" d="M18.4,66.2c-5.1,0-9.4-1.8-13-5.4c-3.6-3.6-5.4-7.9-5.3-13c-0.1-5,1.7-9.3,5.3-12.9c3.6-3.6,8-5.4,13-5.4
		c4.9,0,9.2,1.8,12.8,5.4c3.6,3.6,5.5,7.9,5.6,12.9c-0.1,3.3-0.9,6.4-2.6,9.2c-1.7,2.8-3.9,5-6.7,6.7C24.7,65.4,21.7,66.2,18.4,66.2
		z M18.4,151c-5.1,0-9.4-1.8-13-5.4c-3.6-3.6-5.4-7.9-5.3-13c-0.1-5,1.7-9.3,5.3-12.9c3.6-3.6,8-5.3,13-5.3c4.9,0,9.2,1.8,12.8,5.3
		c3.6,3.6,5.5,7.9,5.6,12.9c-0.1,3.4-0.9,6.5-2.6,9.3c-1.7,2.8-3.9,5-6.7,6.6S21.7,151,18.4,151z"/>
	<path class="st0" d="M69.5,171.6V0.4h64.2c13.1,0,24.2,2.5,33.1,7.4c8.9,4.9,15.7,11.6,20.3,20.2s6.9,18.3,6.9,29.1
		c0,11-2.3,20.7-6.9,29.3c-4.6,8.5-11.5,15.2-20.5,20.1c-9,4.9-20.1,7.3-33.4,7.3H90.7V88.3h38.4c7.7,0,14-1.3,18.9-4
		c4.9-2.7,8.5-6.4,10.9-11c2.4-4.7,3.6-10.1,3.6-16.1s-1.2-11.4-3.6-16c-2.4-4.6-6-8.2-10.9-10.8c-4.9-2.6-11.3-3.9-19-3.9h-28.4
		v145.3H69.5z"/>
</g>
</svg>
